<svg width="28" height="28" viewBox="0 0 28 28" fill="none" xmlns="http://www.w3.org/2000/svg">
<rect width="28" height="28" rx="14" fill="url(#paint0_radial_24428_118162)"/>
<rect x="0.5" y="0.5" width="27" height="27" rx="13.5" stroke="#464551" stroke-opacity="0.08"/>
<path d="M11.1759 9.88629C10.3796 10.5283 9.78237 11.3296 9.40411 12.2653C9.02089 13.206 8.91139 14.1964 9.07066 15.2117C9.22992 16.222 9.64301 17.1328 10.295 17.9092C10.947 18.6856 11.7582 19.263 12.7138 19.6263C13.6694 19.9896 14.6897 20.0892 15.7398 19.9199L19.9902 19.248L18.9052 12.3947L13.973 13.1761L14.3513 15.5551L16.6755 15.1868L16.9841 17.1229L15.4213 17.3717C14.8689 17.4613 14.3264 17.4016 13.8187 17.1975C13.3111 16.9935 12.8731 16.6749 12.5297 16.2519C12.1863 15.8288 11.9623 15.3311 11.8777 14.7737C11.7881 14.2163 11.8478 13.6788 12.0419 13.1661C12.241 12.6585 12.5546 12.2205 12.9776 11.8671C13.4007 11.5138 13.8934 11.2948 14.4458 11.2052L18.6166 10.5433L18.2134 8L13.9631 8.6719C12.9129 8.83614 11.9723 9.24923 11.1759 9.88629Z" fill="#002253"/>
<defs>
<radialGradient id="paint0_radial_24428_118162" cx="0" cy="0" r="1" gradientUnits="userSpaceOnUse" gradientTransform="translate(9 11.5) rotate(43.1354) scale(32.5445)">
<stop stop-color="white"/>
<stop offset="1" stop-color="#89DCFD"/>
</radialGradient>
</defs>
</svg>
