<svg width="18" height="18" viewBox="0 0 18 18" fill="none" xmlns="http://www.w3.org/2000/svg">
<path d="M6.075 15.9098C5.1625 15.5158 4.36875 14.9813 3.69375 14.3063C3.01875 13.6313 2.4845 12.8375 2.091 11.925C1.6975 11.0125 1.5005 10.0375 1.5 9C1.4995 7.9625 1.6965 6.9875 2.091 6.075C2.4855 5.1625 3.01975 4.36875 3.69375 3.69375C4.36775 3.01875 5.1615 2.4845 6.075 2.091C6.9885 1.6975 7.9635 1.5005 9 1.5C10.0365 1.4995 11.0115 1.6965 11.925 2.091C12.8385 2.4855 13.6323 3.01975 14.3063 3.69375C14.9803 4.36775 15.5148 5.1615 15.9098 6.075C16.3048 6.9885 16.5015 7.9635 16.5 9C16.4985 10.0365 16.3015 11.0115 15.909 11.925C15.5165 12.8385 14.9823 13.6323 14.3063 14.3063C13.6303 14.9803 12.8365 15.5148 11.925 15.9098C11.0135 16.3048 10.0385 16.5015 9 16.5C7.9615 16.4985 6.9865 16.3023 6.075 15.9098ZM13.2563 13.2563C14.4187 12.0938 15 10.675 15 9C15 7.325 14.4187 5.90625 13.2563 4.74375C12.0938 3.58125 10.675 3 9 3C7.325 3 5.90625 3.58125 4.74375 4.74375C3.58125 5.90625 3 7.325 3 9C3 10.675 3.58125 12.0938 4.74375 13.2563C5.90625 14.4187 7.325 15 9 15C10.675 15 12.0938 14.4187 13.2563 13.2563ZM5.8125 12.1875C4.9375 11.3125 4.5 10.25 4.5 9C4.5 7.75 4.9375 6.6875 5.8125 5.8125C6.6875 4.9375 7.75 4.5 9 4.5C10.25 4.5 11.3125 4.9375 12.1875 5.8125C13.0625 6.6875 13.5 7.75 13.5 9C13.5 10.25 13.0625 11.3125 12.1875 12.1875C11.3125 13.0625 10.25 13.5 9 13.5C7.75 13.5 6.6875 13.0625 5.8125 12.1875ZM11.1188 11.1188C11.7063 10.5313 12 9.825 12 9C12 8.175 11.7063 7.46875 11.1188 6.88125C10.5313 6.29375 9.825 6 9 6C8.175 6 7.46875 6.29375 6.88125 6.88125C6.29375 7.46875 6 8.175 6 9C6 9.825 6.29375 10.5313 6.88125 11.1188C7.46875 11.7063 8.175 12 9 12C9.825 12 10.5313 11.7063 11.1188 11.1188ZM7.941 10.0598C7.647 9.76575 7.5 9.4125 7.5 9C7.5 8.5875 7.647 8.2345 7.941 7.941C8.235 7.6475 8.588 7.5005 9 7.5C9.412 7.4995 9.76525 7.6465 10.0598 7.941C10.3543 8.2355 10.501 8.5885 10.5 9C10.499 9.4115 10.3523 9.76475 10.0598 10.0598C9.76725 10.3548 9.414 10.5015 9 10.5C8.586 10.4985 8.233 10.3518 7.941 10.0598Z" fill="#A1D8EE"/>
</svg>
